# xmcd CD database file
#
# Track frame offsets:
#	150
#	22832
#	49152
#
# Disc length: 955 seconds
#
# Revision: 0
# Processed by: cddbd v1.5.1PL0 Copyright (c) Steve Scherf et al.
# Submitted via: CDex 1.51
#
DISCID=1903b903
DTITLE=岡村孝子 - ミストラル〜季節風〜
DYEAR=9204
DGENRE=Other
TTITLE0=ミストラル〜季節風〜
TTITLE1=愛を急がないで
TTITLE2=ミストラル〜季節風〜(オリジナル・カラオケ)
EXTD=YEAR: 920429
EXTT0=
EXTT1=
EXTT2=
PLAYORDER=
